PathFileType	4	(X/Y/Z)	S01_0004_Gait_markers.trc
DataRate	CameraRate	NumFrames	NumMarkers	Units	OrigDataRate	OrigDataStartFrame	OrigNumFrames
250.000000	250.000000	4	54	mm	250.000000	40	320
Frame#	Time	HEAD_ANT			R_HEAD			L_HEAD			C7			R_BACK			L_BACK			STERNUM			R_ACROMION			R_HUM_PROX			R_HUM_ANT			R_HUM_POST			R_ELBOW_LAT			R_ELBOW_MED			R_FOREARM			R_WIRST_LAT			R_WRITS_MED			R_HAND			L_ACROMION			L_HUM_PROX			L_HUM_ANT			L_HUM_POST			L_ELBOW_LAT			L_ELBOW_MED			L_FOREARM			L_WRIST_LAT			L_WIRST_MED			L_HAND			R_ILIAC			SACRUM			L_ILIAC			R_GTROCH			R_THIGH__1			R_THIGH_2			R_THIGH_3			R_THIGH_4			R_SHANK_1			R_SHANK_2			R_SHANK_3			R_SHANK_4			R_HEEL			R_FOOT_LAT			R_FOOT_MED			L_GTROCH			L_THIGH_1			L_THIGH_2			L_THIGH_3			L_THIGH_4			L_SHANK_1			L_SHANK_2			L_SHANK_3			L_SHANK_4			L_HEEL			L_FOOT_LAT			L_FOOT_MED			
		X1	Y1	Z1	X2	Y2	Z2	X3	Y3	Z3	X4	Y4	Z4	X5	Y5	Z5	X6	Y6	Z6	X7	Y7	Z7	X8	Y8	Z8	X9	Y9	Z9	X10	Y10	Z10	X11	Y11	Z11	X12	Y12	Z12	X13	Y13	Z13	X14	Y14	Z14	X15	Y15	Z15	X16	Y16	Z16	X17	Y17	Z17	X18	Y18	Z18	X19	Y19	Z19	X20	Y20	Z20	X21	Y21	Z21	X22	Y22	Z22	X23	Y23	Z23	X24	Y24	Z24	X25	Y25	Z25	X26	Y26	Z26	X27	Y27	Z27	X28	Y28	Z28	X29	Y29	Z29	X30	Y30	Z30	X31	Y31	Z31	X32	Y32	Z32	X33	Y33	Z33	X34	Y34	Z34	X35	Y35	Z35	X36	Y36	Z36	X37	Y37	Z37	X38	Y38	Z38	X39	Y39	Z39	X40	Y40	Z40	X41	Y41	Z41	X42	Y42	Z42	X43	Y43	Z43	X44	Y44	Z44	X45	Y45	Z45	X46	Y46	Z46	X47	Y47	Z47	X48	Y48	Z48	X49	Y49	Z49	X50	Y50	Z50	X51	Y51	Z51	X52	Y52	Z52	X53	Y53	Z53	X54	Y54	Z54	

41	0.16	377.7855834960938	1716.463134765625	-297.399261474609	317.7486877441406	1665.275268554688	-222.3845672607418	319.7342224121094	1670.579956054688	-369.9121704101559	182.1016845703125	1496.015014648438	-306.7917785644528	109.776123046875	1296.0439453125	-252.447082519531	117.537712097168	1304.515380859375	-390.5787963867185	361.3500671386719	1336.446166992188	-303.1691589355466	252.336669921875	1440.954833984375	-133.7288513183591	209.6112518310547	1278.7197265625	-49.79839324951143	269.4277038574219	1192.30322265625	-45.90217971801732	148.0300598144531	1196.031005859375	-41.85166549682591	195.5335693359375	1089.54150390625	-35.83123016357398	167.9735260009766	1089.068359375	-115.1329727172849	285.2279663085938	901.0202026367188	-38.85860443115214	318.1875305175781	833.064208984375	-83.07399749755841	251.4536285400391	814.4924926757812	-40.55643844604474	314.8617553710938	742.6126098632812	-29.73287963867171	271.7799987792969	1460.583251953125	-472.1083679199215	255.5957641601562	1296.739013671875	-573.4719848632809	318.2525634765625	1216.915161132813	-575.487609863281	197.0638885498047	1218.955810546875	-598.720764160156	259.2149963378906	1115.73486328125	-610.667053222656	207.1272277832031	1108.260620117188	-554.6217651367185	378.2271423339844	947.6535034179689	-591.9114990234373	415.4927368164062	889.7067260742189	-540.5456542968748	370.3099365234375	864.8844604492189	-603.3787841796873	451.128662109375	815.7633666992189	-592.2034912109373	275.5893859863281	1054.862670898438	-148.1015014648435	143.6258392333984	1017.754516601563	-308.896301269531	263.1541137695312	1043.122802734375	-489.4227905273435	258.1585083007812	902.4658203125	-130.6717681884764	375.6597595214844	638.6490478515625	-173.0773468017577	424.2803955078125	670.9066772460938	-177.6630554199217	455.50048828125	577.6762084960938	-219.2581481933592	394.4216918945312	562.0298461914062	-198.8165435791014	418.4838562011719	342.2777709960938	-203.062759399414	470.8816833496094	326.6649169921876	-229.6425628662109	469.3219909667969	242.5877685546876	-249.9377899169921	409.1377563476562	243.1400299072266	-226.2236328124999	364.5214233398438	39.42638778686531	-312.0548706054688	532.8961181640625	20.99753570556646	-239.3771362304688	579.2286987304688	32.41923522949227	-343.1321105957031	212.8296203613281	928.5577392578126	-491.9215087890623	260.4189147949219	638.3414916992189	-503.3546142578124	208.649169921875	667.2015991210939	-507.5694885253905	183.2889709472656	565.5736083984376	-488.103790283203	246.9595031738281	558.4807739257814	-489.8975524902343	58.85673904418945	339.7186889648439	-474.8715820312499	4.002770900726318	366.2731933593751	-474.7499389648437	-58.35203552246094	307.791961669922	-454.0948791503906	-9.366737365722656	266.5308227539064	-449.8212280273437	-204.6197662353516	221.9110412597657	-381.9682006835937	-157.2972259521484	40.89837265014657	-393.3154602050781	-116.9388427734375	58.7054519653321	-300.1034545898438	
42	0.164	383.4574279785156	1717.16162109375	-297.1098937988277	323.5325927734375	1666.0322265625	-222.2065887451168	325.3810424804688	1671.239868164062	-369.7460021972652	187.8785858154297	1496.533813476562	-306.4982910156247	115.8991394042969	1296.703247070312	-252.0141906738278	123.2168273925781	1305.390747070312	-390.3696594238278	367.1162719726562	1337.214965820312	-303.1264343261716	258.3988037109375	1441.611938476562	-133.4715881347653	216.2272491455078	1279.3408203125	-49.28455352783175	276.1670837402344	1192.890991210938	-45.8390159606931	154.69873046875	1196.423828125	-41.163578033447	202.1931457519531	1090.237670898438	-35.42557907104468	174.6991119384766	1089.734375	-114.583198547363	292.5394897460938	901.7662963867188	-39.20831680297832	325.2926330566406	833.7850341796875	-83.96323394775372	258.77392578125	815.2139892578125	-40.9194030761717	322.7596435546875	743.5795288085938	-30.49295616149886	277.1539916992188	1461.173217773438	-471.8942565917965	260.6519165039062	1297.534301757813	-573.5245971679684	323.2516174316406	1217.665893554688	-575.5324096679685	202.0278625488281	1219.8330078125	-598.2761230468748	264.9519958496094	1115.854614257813	-609.7274169921873	211.8556976318359	1109.007568359375	-554.4959716796873	382.2764892578125	947.6867675781251	-592.3270263671873	419.4862670898438	889.5627441406251	-541.496643066406	373.7062683105469	865.1098632812501	-604.1522216796873	454.2511291503906	815.3934326171876	-593.1361694335935	281.39013671875	1055.41796875	-148.3007812499998	149.6461334228516	1018.198059082031	-308.6967468261716	269.1369934082031	1043.8349609375	-489.0568847656248	264.3723449707031	903.0956420898438	-130.4749298095701	379.7405395507812	638.4540405273438	-174.8355407714842	428.3412780761719	670.933349609375	-179.2039794921874	459.3240661621094	577.3900146484375	-219.3090820312499	398.0032653808594	562.0419921875	-199.3351135253905	420.4280700683594	342.3439025878907	-203.516387939453	472.7972717285156	326.3721008300782	-229.9099884033202	470.7832946777344	242.1132507324219	-250.0214385986328	410.5286865234375	243.1797180175782	-226.615249633789	364.6385192871094	39.53374481201179	-312.1557922363281	532.9600830078125	21.00286102294927	-239.4051971435547	579.5747680664062	32.0513000488282	-343.5263671875	219.2097625732422	928.5691528320314	-491.6352233886716	269.3919372558594	638.6885375976564	-504.2495117187499	217.4950866699219	667.0740966796876	-508.7559814453123	193.0250396728516	565.0278930664064	-489.1749572753905	256.8101196289062	558.5555419921876	-491.0358886718749	68.574462890625	340.4176330566407	-476.7122192382812	14.15743827819824	367.4125366210939	-476.6899108886718	-49.00916290283203	309.855682373047	-456.0738830566406	-0.516690194606781	267.825408935547	-451.1868896484374	-195.5202178955078	226.705535888672	-384.7696228027343	-153.2563781738281	44.31946563720712	-395.3025207519531	-112.5949478149414	61.41683578491217	-302.0068054199219	
43	0.168	389.0601196289062	1717.8232421875	-297.0624084472652	329.1145935058594	1666.772338867188	-222.0839996337887	330.8473205566406	1671.969482421875	-369.4139404296871	193.4676666259766	1497.089111328125	-306.2035827636715	122.0190963745117	1297.25048828125	-251.4939117431638	128.9637145996094	1306.257568359375	-390.0694885253903	373.0242309570312	1337.904296875	-303.0444641113278	264.4756774902344	1442.30908203125	-133.3140716552731	222.8347625732422	1279.95458984375	-48.84001541137667	282.9008178710938	1193.64990234375	-45.44458770751927	161.3963775634766	1197.050537109375	-40.54270172119114	209.0157928466797	1090.824096679688	-35.05533981323218	181.0876312255859	1090.135131835938	-113.8792953491209	300.0694885253906	902.4984741210938	-39.72046279907207	332.6259460449219	834.5567626953125	-84.63256072998028	266.3126525878906	815.8687133789062	-41.07826232910138	330.6306457519531	744.4434814453125	-31.22773551940901	282.7806091308594	1461.890258789062	-471.5578918457028	265.9595031738281	1298.255249023438	-573.3784179687497	328.1881103515625	1218.22021484375	-575.702453613281	206.9551239013672	1220.734375	-598.057922363281	269.510498046875	1116.626953125	-609.6115722656248	216.9077911376953	1109.992553710938	-554.1868896484373	386.2466125488281	947.6494750976564	-593.222229003906	423.2781982421875	889.5044555664064	-542.098693847656	377.4111022949219	865.5276489257814	-604.2042236328123	457.4922180175781	815.1801147460939	-594.6727294921873	287.127197265625	1055.96923828125	-148.2600860595701	154.5478820800781	1018.957763671875	-309.5424804687498	274.8143310546875	1044.90087890625	-488.7794494628904	270.3482971191406	903.264892578125	-130.3330688476561	383.6842651367188	639.0607299804688	-173.4387054443358	432.5818786621094	671.0773315429688	-178.7225341796874	462.7970275878906	577.0897216796875	-219.4433593749999	401.5317687988281	562.2041625976562	-199.4546356201171	422.0683288574219	342.2474975585938	-203.6831665039062	474.4696655273438	325.9223327636719	-229.8427581787109	472.078857421875	241.6369323730469	-250.122817993164	411.6643676757812	243.1026611328126	-226.8880767822265	364.7081298828125	39.62580871582038	-312.2520446777344	533.027587890625	20.96387290954595	-239.3798217773438	579.849365234375	31.7141418457032	-343.8302001953125	225.2421569824219	928.7400512695314	-491.7148132324216	278.349609375	639.1002197265626	-505.2474670410155	226.2969970703125	666.6923828125001	-509.8299865722655	202.9308319091797	564.5808105468751	-490.3507385253905	266.7283020019531	559.0861206054689	-492.5878601074218	78.54164886474609	341.1317749023439	-478.1887512207031	24.37833786010742	368.6430664062501	-478.5775756835937	-39.43392944335938	311.7855529785157	-457.6556701660156	8.540487289428711	269.4436340332032	-452.8450622558593	-186.14306640625	231.2792358398438	-387.3774414062499	-148.3972625732422	47.88016128540048	-397.302734375	-107.6452484130859	63.80401229858406	-304.1546936035156	
44	0.172	394.7468872070312	1718.780639648438	-296.9328613281246	334.808349609375	1667.52099609375	-221.8029327392574	336.3251037597656	1672.77490234375	-369.2746276855465	199.1725158691406	1497.798950195312	-305.6943359374997	128.5851135253906	1297.604614257812	-250.3654479980466	134.5417938232422	1307.042236328125	-390.1702880859372	378.8076782226562	1338.675415039062	-303.0038757324216	270.6344604492188	1443.079345703125	-133.0987243652341	229.4405670166016	1280.600341796875	-48.40286254882784	289.4946594238281	1194.365844726562	-45.43867492675755	168.0838317871094	1197.707153320312	-39.89315414428685	216.4119262695312	1091.252685546875	-34.56616592407202	187.6879577636719	1090.77978515625	-113.3604812622068	307.5097351074219	903.3145751953125	-39.9882926940916	339.9066467285156	835.5137329101562	-85.38590240478497	274.0086059570312	816.6040649414062	-41.44372177124005	338.548828125	745.0966796875	-32.00660324096663	288.1260070800781	1462.634155273438	-471.5426025390622	271.0862121582031	1299.057739257813	-573.2108154296872	333.1791381835938	1218.792114257813	-575.741516113281	211.7781829833984	1221.685302734375	-597.9296264648435	274.2770080566406	1117.377197265625	-609.458312988281	221.5585174560547	1110.774291992188	-554.1097412109373	389.7655639648438	948.0372314453126	-594.1611328124998	427.0889892578125	889.2644653320314	-542.4787597656248	381.0075073242188	865.9820556640626	-605.4403686523435	460.6142883300781	814.7791137695314	-595.0368041992185	292.9686584472656	1056.501586914062	-148.0651397705076	160.453369140625	1019.687316894531	-309.4846496582029	280.4855651855469	1045.615966796875	-488.5040893554685	272.77587890625	903.9776611328125	-129.9914855957029	387.5473937988281	639.3648071289062	-173.3774566650389	436.8629455566406	670.8107299804688	-178.2421874999999	466.2343139648438	576.7183227539062	-219.3846588134764	404.8775939941406	562.2909545898438	-199.4317016601561	423.5325622558594	342.1663513183594	-204.0462493896484	476.0129089355469	325.3917846679688	-229.7291107177734	473.1177673339844	241.2737274169922	-250.1477813720703	412.6061401367188	243.0322265625001	-227.2484893798828	364.7530822753906	39.75717163085945	-312.3721008300781	533.0588989257812	20.85758590698248	-239.2773284912109	580.1002197265625	31.50100326538093	-343.9351806640625	231.3885955810547	928.8240966796876	-491.6993713378904	287.6192321777344	639.4570922851564	-506.1261291503905	235.0696411132812	666.5908203125001	-510.5734863281248	212.8278503417969	564.6015625000001	-491.8909606933593	276.3698120117188	558.8436279296876	-493.5479736328124	88.58094787597656	341.9308471679689	-479.7132873535156	34.63825225830078	370.0820922851564	-480.5653076171874	-29.8944206237793	313.9713745117189	-459.9480895996093	17.72274208068848	271.1403808593751	-454.5310668945312	-176.6544494628906	235.8206329345704	-389.6155395507812	-143.6094207763672	51.53330230712899	-399.3809204101562	-101.8805847167969	66.00230407714851	-306.6011047363281	
